<?xml version="1.0" encoding="UTF-8" standalone="no"?>
<!DOCTYPE svg PUBLIC "-//W3C//DTD SVG 1.1//EN" "http://www.w3.org/Graphics/SVG/1.1/DTD/svg11.dtd">
<svg width="100%" height="100%" viewBox="0 0 2560 800" version="1.1" xmlns="http://www.w3.org/2000/svg" xmlns:xlink="http://www.w3.org/1999/xlink" xml:space="preserve" xmlns:serif="http://www.serif.com/" style="fill-rule:evenodd;clip-rule:evenodd;stroke-linejoin:round;stroke-miterlimit:2;">
    <path d="M2265.6,12.9C2173.1,26.9 2067.8,77.1 1985.7,100.4C1887.1,85.3 1799,47 1684.8,36.9C1606.3,29.9 1544.4,29.6 1491.2,33.3C1433.5,19.6 1361.4,8.5 1259.3,4.6C1103.6,-1.4 992.3,39.4 889.9,74.7C797.6,40.8 710.1,-11.5 602.9,2.3C488.6,17 434.4,55 351.7,79.3C349.7,78.5 347.7,77.7 345.6,76.8C245,35.6 137.8,53.8 69.9,74C26.3,59 0,42.9 0,42.9L0,800L2560,800L2560,58C2560,58 2384.4,-5.1 2265.6,12.9Z" style="fill:rgb(254,193,38);fill-opacity:0.65;fill-rule:nonzero;"/>
    <path d="M2155.9,97.3C2092.7,109.8 2037.8,108.3 1985.8,100.4C1962.5,107 1941,111.5 1922.2,112.3C1693.9,122.2 1641.5,68.9 1491.3,33.3C1330.8,44.3 1249.4,91.4 1032.4,101.3C981.8,103.6 935.3,91.4 889.9,74.7C830.8,95.1 774.7,113.7 714.9,120.6C610.2,132.6 512.1,143.9 351.7,79.4C325,87.2 295.3,93.7 259.7,97.4C184,105.3 116.9,90.4 69.9,74.2C27.1,86.8 0,100.3 0,100.3L0,800L2560,800L2560,85.2C2465.9,44 2338.9,61 2155.9,97.3Z" style="fill:rgb(252,149,50);fill-rule:nonzero;"/>
</svg>
