<svg width="2560" height="800" viewBox="0 0 2560 800" xmlns="http://www.w3.org/2000/svg">
    <path fill="#e1f0fb" opacity=".65" d="M2265.6 12.9c-92.5 14-197.8 64.2-279.9 87.5-98.6-15.1-186.7-53.4-300.9-63.5-78.5-7-140.4-7.3-193.6-3.6-57.7-13.7-129.8-24.8-231.9-28.7-155.7-6-267 34.8-369.4 70.1-92.3-33.9-179.8-86.2-287-72.4C488.6 17 434.4 55 351.7 79.3c-2-.8-4-1.6-6.1-2.5C245 35.6 137.8 53.8 69.9 74 26.3 59 0 42.9 0 42.9V800h2560V58s-175.6-63.1-294.4-45.1z"/>
    <path fill="#e1f0fb" d="M2155.9 97.3c-63.2 12.5-118.1 11-170.1 3.1-23.3 6.6-44.8 11.1-63.6 11.9-228.3 9.9-280.7-43.4-430.9-79-160.5 11-241.9 58.1-458.9 68-50.6 2.3-97.1-9.9-142.5-26.6-59.1 20.4-115.2 39-175 45.9-104.7 12-202.8 23.3-363.2-41.2-26.7 7.8-56.4 14.3-92 18-75.7 7.9-142.8-7-189.8-23.2C27.1 86.8 0 100.3 0 100.3V800h2560V85.2C2465.9 44 2338.9 61 2155.9 97.3z"/>
</svg>
