<?xml version="1.0" encoding="UTF-8" standalone="no"?>
<!DOCTYPE svg PUBLIC "-//W3C//DTD SVG 1.1//EN" "http://www.w3.org/Graphics/SVG/1.1/DTD/svg11.dtd">
<svg width="100%" height="100%" viewBox="0 0 500 500" version="1.1" xmlns="http://www.w3.org/2000/svg" xmlns:xlink="http://www.w3.org/1999/xlink" xml:space="preserve" xmlns:serif="http://www.serif.com/" style="fill-rule:evenodd;clip-rule:evenodd;stroke-linejoin:round;stroke-miterlimit:1.41421;">
    <g transform="matrix(6.62739,0,0,6.62739,456.019,55.4496)">
        <path d="M0,58.711C-2.27,57.828 -4.671,57.044 -7.197,56.369L-6.187,50.306L2.652,51.794L0.029,44.165L2.864,44.643L-0.201,36.823L2.648,37.304L-5.464,20.38L-14.439,29.54L-19.254,21.488L-14.839,21.495L-31.313,-1.978L-47.692,21.439L-43.281,21.446L-47.677,28.815L-56.709,19.598L-64.817,36.523L-61.97,36.043L-65.036,43.859L-62.199,43.381L-64.823,51.012L-55.979,49.521L-54.887,56.104C-57.536,56.769 -60.055,57.554 -62.437,58.448L-62.089,60.422C-59.286,59.349 -56.27,58.43 -53.08,57.686L-53.302,56.345L-53.402,55.74C-53.402,55.74 -53.402,55.745 -53.403,55.745L-54.735,47.77L-62.555,49.087L-59.926,41.453L-62.637,41.913L-59.567,34.095L-62.18,34.532L-56.271,22.214L-48.479,30.172L-47.973,29.33L-49.82,32.423L-45.416,32.431L-51.253,43.25L-37.37,43.279L-37.37,53.526C-40.622,53.705 -43.802,54.028 -46.881,54.496L-47.931,48.16L-38.973,46.651L-40.975,44.074L-42.898,44.074L-41.74,45.574L-49.682,46.914L-48.381,54.739L-48.293,55.279L-48.065,56.683C-43.913,55.974 -39.544,55.539 -35.046,55.388L-35.046,53.666L-35.046,53.421L-35.046,40.961L-47.363,40.936L-41.523,30.117L-45.735,30.105L-39.194,19.127L-43.232,19.121L-31.313,2.074L-19.32,19.166L-23.355,19.153L-16.772,30.167L-20.981,30.158L-15.104,41.003L-27.223,40.977L-27.223,53.451L-27.239,53.451L-27.239,55.423C-22.656,55.612 -18.213,56.098 -14,56.868L-13.686,54.928L-13.692,54.928L-12.489,47.698L-20.436,46.357L-19.275,44.857L-21.197,44.857L-23.198,47.434L-14.237,48.943L-15.193,54.664C-18.324,54.15 -21.571,53.785 -24.897,53.577L-24.897,43.313L-11.195,43.341L-17.072,32.49L-12.672,32.503L-13.632,30.889L-5.897,22.996L0.01,35.316L-2.601,34.879L0.47,42.693L-2.246,42.238L0.377,49.871L-7.437,48.553L-8.678,55.991L-9,57.937C-5.938,58.697 -3.038,59.621 -0.344,60.689L-0.254,60.175L0,58.711Z" style="fill:rgb(30,28,26);fill-rule:nonzero;"/>
    </g>
</svg>
