<?xml version="1.0" encoding="UTF-8" standalone="yes"?>
<!DOCTYPE svg PUBLIC "-//W3C//DTD SVG 1.1//EN" "http://www.w3.org/Graphics/SVG/1.1/DTD/svg11.dtd">

<svg width="890" height="388" viewBox="0 0 890 388" xmlns="http://www.w3.org/2000/svg" xmlns:xlink="http://www.w3.org/1999/xlink" version="1.1" baseProfile="full">
    <g transform="scale(1,-1) translate(0,-388)">
        <path d="M 1.000000 115.240000 L 1.000000 1.000000 L 26.120000 1.000000 L 26.120000 48.200000 L 73.960000 48.200000 L 73.960000 67.720000 L 26.120000 67.720000 L 26.120000 94.120000 L 81.320000 94.120000 L 81.320000 115.240000 Z" transform="scale(1.000000,1.000000) translate(133.000004,135.999995)" fill="#000000" opacity="1.000000"></path>
        <path d="M 33.200000 184.800000 L 1.000000 184.800000 L 1.000000 174.200000 L 20.600000 174.200000 L 20.600000 11.600000 L 1.000000 11.600000 L 1.000000 1.000000 L 33.200000 1.000000 Z" transform="scale(1.000000,1.000000) translate(213.319998,101.219995)" fill="#000000" opacity="1.000000"></path>
        <path d="M 1.000000 1.000000 L 33.200000 1.000000 L 33.200000 11.600000 L 13.600000 11.600000 L 13.600000 174.200000 L 33.200000 174.200000 L 33.200000 184.800000 L 1.000000 184.800000 Z" transform="scale(1.000000,1.000000) translate(100.800002,101.219995)" fill="#000000" opacity="1.000000"></path>
        <path d="M 14.680000 12.880000 L 42.880000 12.880000 L 42.880000 1.840000 L 1.000000 1.840000 L 1.000000 85.240000 L 14.680000 85.240000 Z M 67.840000 85.240000 L 67.840000 32.080000 Q 67.840000 22.600000 72.820000 17.800000 Q 77.800000 13.000000 86.680000 13.000000 Q 95.680000 13.000000 100.660000 17.800000 Q 105.640000 22.600000 105.640000 32.080000 L 105.640000 85.240000 L 119.320000 85.240000 L 119.320000 32.320000 Q 119.320000 22.120000 114.880000 15.040000 Q 110.440000 7.960000 103.000000 4.480000 Q 95.560000 1.000000 86.560000 1.000000 Q 77.560000 1.000000 70.180000 4.480000 Q 62.800000 7.960000 58.480000 15.040000 Q 54.160000 22.120000 54.160000 32.320000 L 54.160000 85.240000 Z M 175.360000 43.480000 L 201.280000 1.840000 L 185.920000 1.840000 L 167.080000 32.080000 L 149.440000 1.840000 L 134.200000 1.840000 L 160.120000 43.480000 L 134.080000 85.240000 L 149.440000 85.240000 L 168.400000 54.760000 L 186.160000 85.240000 L 201.400000 85.240000 Z M 261.040000 85.240000 L 261.040000 32.080000 Q 261.040000 22.600000 266.020000 17.800000 Q 271.000000 13.000000 279.880000 13.000000 Q 288.880000 13.000000 293.860000 17.800000 Q 298.840000 22.600000 298.840000 32.080000 L 298.840000 85.240000 L 312.520000 85.240000 L 312.520000 32.320000 Q 312.520000 22.120000 308.080000 15.040000 Q 303.640000 7.960000 296.200000 4.480000 Q 288.760000 1.000000 279.760000 1.000000 Q 270.760000 1.000000 263.380000 4.480000 Q 256.000000 7.960000 251.680000 15.040000 Q 247.360000 22.120000 247.360000 32.320000 L 247.360000 85.240000 Z M 343.960000 85.240000 L 343.960000 1.840000 L 330.280000 1.840000 L 330.280000 85.240000 Z M 407.920000 1.840000 L 375.640000 39.160000 L 375.640000 1.840000 L 361.960000 1.840000 L 361.960000 85.240000 L 375.640000 85.240000 L 375.640000 47.200000 L 408.040000 85.240000 L 425.200000 85.240000 L 388.960000 43.480000 L 425.800000 1.840000 Z M 451.600000 85.240000 L 451.600000 1.840000 L 437.920000 1.840000 L 437.920000 85.240000 Z M 523.480000 85.240000 L 523.480000 74.080000 L 501.280000 74.080000 L 501.280000 1.840000 L 487.600000 1.840000 L 487.600000 74.080000 L 465.280000 74.080000 L 465.280000 85.240000 Z" transform="scale(1.000000,1.000000) translate(264.679983,150.999995)" fill="#000000" opacity="1.000000"></path>
    </g>
</svg>